<svg width="25" height="25" viewBox="0 0 25 25" fill="none" xmlns="http://www.w3.org/2000/svg">
<path d="M12.5 6.7041V22.7041M12.5 6.7041H8.96429C8.44332 6.7041 7.9437 6.49339 7.57533 6.11832C7.20695 5.74324 7 5.23453 7 4.7041C7 4.17367 7.20695 3.66496 7.57533 3.28989C7.9437 2.91482 8.44332 2.7041 8.96429 2.7041C11.7143 2.7041 12.5 6.7041 12.5 6.7041ZM12.5 6.7041H16.0357C16.5567 6.7041 17.0563 6.49339 17.4247 6.11832C17.793 5.74324 18 5.23453 18 4.7041C18 4.17367 17.793 3.66496 17.4247 3.28989C17.0563 2.91482 16.5567 2.7041 16.0357 2.7041C13.2857 2.7041 12.5 6.7041 12.5 6.7041ZM20.5 11.7041V19.5041C20.5 20.6242 20.5 21.1843 20.282 21.6121C20.0903 21.9884 19.7843 22.2944 19.408 22.4861C18.9802 22.7041 18.4201 22.7041 17.3 22.7041L7.7 22.7041C6.57989 22.7041 6.01984 22.7041 5.59202 22.4861C5.21569 22.2944 4.90973 21.9884 4.71799 21.6121C4.5 21.1843 4.5 20.6242 4.5 19.5041V11.7041M2.5 8.3041L2.5 10.1041C2.5 10.6642 2.5 10.9442 2.60899 11.1581C2.70487 11.3463 2.85785 11.4992 3.04601 11.5951C3.25992 11.7041 3.53995 11.7041 4.1 11.7041L20.9 11.7041C21.4601 11.7041 21.7401 11.7041 21.954 11.5951C22.1422 11.4992 22.2951 11.3463 22.391 11.1581C22.5 10.9442 22.5 10.6642 22.5 10.1041V8.3041C22.5 7.74405 22.5 7.46402 22.391 7.25011C22.2951 7.06195 22.1422 6.90897 21.954 6.8131C21.7401 6.7041 21.4601 6.7041 20.9 6.7041L4.1 6.7041C3.53995 6.7041 3.25992 6.7041 3.04601 6.8131C2.85785 6.90897 2.70487 7.06195 2.60899 7.25011C2.5 7.46402 2.5 7.74405 2.5 8.3041Z" stroke="white" stroke-width="2" stroke-linecap="round" stroke-linejoin="round"/>
</svg>
